<svg viewBox="266.8 479.2 185.7 185.7" xmlns="http://www.w3.org/2000/svg">
  <rect x="266.8" y="479.2" width="185.7" height="185.7" rx="16" ry="16" fill="#0b0b0d"/>
  <path fill="#ffffff" d="M397.1,611.2c-.9-.6-1.6-1.5-2.3-2.7l-11.3-21.5c6.3-3.2,11.3-7.7,15-13.6s5.7-12.6,5.7-20.3-1.8-14.4-5.4-20.2c-3.6-5.8-8.5-10.3-14.6-13.6-6.1-3.2-12.8-4.9-20.1-4.9h-51v115.1h19.6v-38h27.7c1.2,0,2.3,0,3.4-.2l13.5,25.8c2.1,3.7,4.9,6.7,8.4,9,3.5,2.2,7.5,3.4,12,3.4h12.7v-17.4h-9.7c-1.4,0-2.6-.3-3.5-.9h0ZM358.4,576.6h-26v-47.4h26c17.2,0,26,6.2,26,18.9v4.2c0,.2,0,.5,0,.7s0,.5,0,.8v3.8c0,12.5-8.6,18.9-26,18.9h0Z"/>
</svg>
